<svg xmlns="http://www.w3.org/2000/svg" xmlns:xlink="http://www.w3.org/1999/xlink" width="500" zoomAndPan="magnify" viewBox="0 0 375 374.999991" height="500" preserveAspectRatio="xMidYMid meet" version="1.0"><defs><clipPath id="de95e474f1"><path d="M 113.207031 93.609375 L 239.957031 93.609375 L 239.957031 269.109375 L 113.207031 269.109375 Z M 113.207031 93.609375 " clip-rule="nonzero"/></clipPath><clipPath id="6eaa6b93d0"><path d="M 10 0.609375 L 121 0.609375 L 121 176.039062 L 10 176.039062 Z M 10 0.609375 " clip-rule="nonzero"/></clipPath><clipPath id="340b00dc98"><path d="M 38 8 L 126.957031 8 L 126.957031 97 L 38 97 Z M 38 8 " clip-rule="nonzero"/></clipPath><clipPath id="bbd0160fde"><path d="M 0.394531 31 L 5 31 L 5 74 L 0.394531 74 Z M 0.394531 31 " clip-rule="nonzero"/></clipPath><clipPath id="bbf4af6ae2"><rect x="0" width="127" y="0" height="177"/></clipPath><clipPath id="5f42a32325"><path d="M 152.113281 145 L 185 145 L 185 149 L 152.113281 149 Z M 152.113281 145 " clip-rule="nonzero"/></clipPath><clipPath id="e3ed88e165"><path d="M 207 145 L 239.863281 145 L 239.863281 149 L 207 149 Z M 207 145 " clip-rule="nonzero"/></clipPath><clipPath id="f9da15ec0a"><path d="M 194 103.242188 L 198 103.242188 L 198 136 L 194 136 Z M 194 103.242188 " clip-rule="nonzero"/></clipPath><clipPath id="44c7072fbb"><path d="M 194 158 L 198 158 L 198 190.992188 L 194 190.992188 Z M 194 158 " clip-rule="nonzero"/></clipPath></defs><rect x="-37.5" width="450" fill="#ffffff" y="-37.499999" height="449.999989" fill-opacity="1"/><rect x="-37.5" width="450" fill="#ffffff" y="-37.499999" height="449.999989" fill-opacity="1"/><g clip-path="url(#de95e474f1)"><g transform="matrix(1, 0, 0, 1, 113, 93)"><g clip-path="url(#bbf4af6ae2)"><g clip-path="url(#6eaa6b93d0)"><path fill="#000000" d="M 79.304688 0.613281 C 95.78125 0.613281 110.464844 8.265625 120.003906 20.210938 C 111.066406 10.183594 98.050781 3.867188 83.5625 3.867188 C 56.609375 3.867188 34.761719 25.714844 34.761719 52.664062 C 34.761719 79.617188 56.609375 101.464844 83.5625 101.464844 C 98.050781 101.464844 111.066406 95.148438 120.003906 85.121094 C 114.109375 92.503906 106.246094 98.246094 97.207031 101.558594 L 120.003906 176.011719 L 80.351562 105.667969 L 40.699219 176.011719 L 63.292969 102.207031 C 44.949219 96.28125 31.054688 80.453125 27.917969 61.019531 L 10.078125 71.320312 L 10.078125 34.011719 L 27.917969 44.3125 C 31.917969 19.535156 53.402344 0.613281 79.304688 0.613281 " fill-opacity="1" fill-rule="nonzero"/></g><g clip-path="url(#340b00dc98)"><path fill="#ffffff" d="M 48.285156 72.925781 C 50.585938 76.914062 55.683594 78.28125 59.671875 75.980469 C 63.660156 73.675781 65.027344 68.578125 62.722656 64.589844 C 60.421875 60.601562 55.324219 59.234375 51.335938 61.539062 C 47.347656 63.839844 45.980469 68.941406 48.285156 72.925781 Z M 68.824219 57.746094 L 83.527344 66.238281 C 87.441406 68.496094 92.332031 65.671875 92.332031 61.15625 L 92.332031 44.175781 C 92.332031 39.660156 87.441406 36.835938 83.527344 39.09375 L 68.824219 47.582031 C 64.910156 49.839844 64.910156 55.488281 68.824219 57.746094 Z M 83.179688 92.84375 C 87.785156 92.84375 91.515625 89.109375 91.515625 84.507812 C 91.515625 79.902344 87.785156 76.167969 83.179688 76.167969 C 78.574219 76.167969 74.839844 79.902344 74.839844 84.507812 C 74.839844 89.109375 78.574219 92.84375 83.179688 92.84375 Z M 103.234375 40.742188 C 105.535156 44.730469 110.636719 46.097656 114.625 43.792969 C 118.613281 41.492188 119.976562 36.390625 117.675781 32.402344 C 115.375 28.417969 110.273438 27.050781 106.285156 29.351562 C 102.296875 31.65625 100.929688 36.753906 103.234375 40.742188 Z M 106.484375 75.632812 C 110.472656 77.9375 115.574219 76.570312 117.875 72.582031 C 120.175781 68.59375 118.8125 63.496094 114.824219 61.191406 C 110.835938 58.890625 105.734375 60.257812 103.433594 64.246094 C 101.128906 68.234375 102.496094 73.332031 106.484375 75.632812 Z M 82.78125 12.488281 C 78.175781 12.488281 74.441406 16.21875 74.441406 20.824219 C 74.441406 25.429688 78.175781 29.160156 82.78125 29.160156 C 87.386719 29.160156 91.117188 25.429688 91.117188 20.824219 C 91.117188 16.21875 87.386719 12.488281 82.78125 12.488281 Z M 59.472656 29.699219 C 55.484375 27.394531 50.386719 28.761719 48.082031 32.75 C 45.78125 36.738281 47.148438 41.835938 51.136719 44.136719 C 55.125 46.441406 60.222656 45.074219 62.527344 41.085938 C 64.828125 37.097656 63.460938 32 59.472656 29.699219 Z M 82.980469 8.539062 C 107.351562 8.539062 127.109375 28.292969 127.109375 52.664062 C 127.109375 77.035156 107.351562 96.792969 82.980469 96.792969 C 58.609375 96.792969 38.851562 77.035156 38.851562 52.664062 C 38.851562 28.292969 58.609375 8.539062 82.980469 8.539062 " fill-opacity="1" fill-rule="nonzero"/></g><g clip-path="url(#bbd0160fde)"><path fill="#000000" d="M 0.242188 32.863281 C 1.628906 32.140625 3.210938 31.792969 4.816406 31.917969 L 4.816406 73.414062 C 3.210938 73.539062 1.628906 73.191406 0.242188 72.46875 L 0.242188 32.863281 " fill-opacity="1" fill-rule="nonzero"/></g></g></g></g><path fill="#010101" d="M 195.988281 180.351562 C 177.691406 180.351562 162.753906 165.414062 162.753906 147.117188 C 162.753906 128.820312 177.691406 113.886719 195.988281 113.886719 C 214.285156 113.886719 229.21875 128.820312 229.21875 147.117188 C 229.21875 165.414062 214.285156 180.351562 195.988281 180.351562 Z M 195.988281 117.621094 C 179.742188 117.621094 166.488281 130.875 166.488281 147.117188 C 166.488281 163.363281 179.742188 176.617188 195.988281 176.617188 C 212.230469 176.617188 225.484375 163.363281 225.484375 147.117188 C 225.484375 130.875 212.230469 117.621094 195.988281 117.621094 Z M 195.988281 117.621094 " fill-opacity="1" fill-rule="nonzero"/><path fill="#010101" d="M 195.988281 168.03125 C 184.410156 168.03125 175.078125 158.695312 175.078125 147.117188 C 175.078125 135.542969 184.410156 126.207031 195.988281 126.207031 C 207.5625 126.207031 216.898438 135.542969 216.898438 147.117188 C 216.898438 158.695312 207.5625 168.03125 195.988281 168.03125 Z M 195.988281 129.941406 C 186.652344 129.941406 178.808594 137.597656 178.808594 147.117188 C 178.808594 156.640625 186.464844 164.296875 195.988281 164.296875 C 205.320312 164.296875 213.164062 156.640625 213.164062 147.117188 C 213.164062 137.597656 205.320312 129.941406 195.988281 129.941406 Z M 195.988281 129.941406 " fill-opacity="1" fill-rule="nonzero"/><g clip-path="url(#5f42a32325)"><path fill="#010101" d="M 152.113281 145.25 L 184.597656 145.25 L 184.597656 148.984375 L 152.113281 148.984375 Z M 152.113281 145.25 " fill-opacity="1" fill-rule="nonzero"/></g><g clip-path="url(#e3ed88e165)"><path fill="#010101" d="M 207.375 145.25 L 239.863281 145.25 L 239.863281 148.984375 L 207.375 148.984375 Z M 207.375 145.25 " fill-opacity="1" fill-rule="nonzero"/></g><g clip-path="url(#f9da15ec0a)"><path fill="#010101" d="M 194.121094 103.242188 L 197.855469 103.242188 L 197.855469 135.730469 L 194.121094 135.730469 Z M 194.121094 103.242188 " fill-opacity="1" fill-rule="nonzero"/></g><g clip-path="url(#44c7072fbb)"><path fill="#010101" d="M 194.121094 158.507812 L 197.855469 158.507812 L 197.855469 190.992188 L 194.121094 190.992188 Z M 194.121094 158.507812 " fill-opacity="1" fill-rule="nonzero"/></g></svg>